<svg width="12" height="12" viewBox="0 0 12 12" fill="none" xmlns="http://www.w3.org/2000/svg">
<path fill-rule="evenodd" clip-rule="evenodd" d="M6.45 7.03766V8.13716C6.45 8.2565 6.40259 8.37096 6.3182 8.45535C6.23381 8.53975 6.11935 8.58716 6 8.58716C5.88065 8.58716 5.76619 8.53975 5.6818 8.45535C5.59741 8.37096 5.55 8.2565 5.55 8.13716V7.03766C5.41352 6.95927 5.30008 6.84633 5.22109 6.7102C5.1421 6.57407 5.10033 6.41955 5.1 6.26216C5.10554 6.0272 5.20277 5.80373 5.3709 5.63952C5.53903 5.4753 5.76473 5.38337 5.99975 5.38337C6.23477 5.38337 6.46047 5.4753 6.6286 5.63952C6.79673 5.80373 6.89396 6.0272 6.8995 6.26216C6.8995 6.59466 6.7175 6.88166 6.45 7.03766V7.03766ZM4.41 3.24966C4.41053 2.82817 4.57823 2.42411 4.87632 2.12612C5.1744 1.82813 5.57851 1.66055 6 1.66016C6.42144 1.66055 6.8255 1.82815 7.12351 2.12615C7.42151 2.42415 7.5891 2.82822 7.5895 3.24966H4.41ZM9.2995 3.24966H8.5895C8.58884 2.56308 8.3158 1.90482 7.83032 1.41933C7.34484 0.933852 6.68657 0.660818 6 0.660156C5.31338 0.660818 4.65506 0.933836 4.1695 1.4193C3.68394 1.90477 3.41079 2.56304 3.41 3.24966H2.7C2.38174 3.24966 2.07652 3.37608 1.85147 3.60113C1.62643 3.82617 1.5 4.1314 1.5 4.44966V9.54966C1.5 9.86792 1.62643 10.1731 1.85147 10.3982C2.07652 10.6232 2.38174 10.7497 2.7 10.7497H9.2995C9.45713 10.7497 9.61323 10.7187 9.75887 10.6585C9.90452 10.5982 10.0369 10.5098 10.1484 10.3984C10.2598 10.2869 10.3483 10.1546 10.4086 10.009C10.4689 9.86337 10.5 9.70729 10.5 9.54966V4.44966C10.5 4.29203 10.4689 4.13594 10.4086 3.99032C10.3483 3.8447 10.2598 3.71239 10.1484 3.60095C10.0369 3.48951 9.90452 3.40113 9.75887 3.34086C9.61323 3.28058 9.45713 3.24959 9.2995 3.24966V3.24966Z" fill="#606060"/>
</svg>
