<svg width="57" height="57" viewBox="0 0 57 57" fill="none" xmlns="http://www.w3.org/2000/svg">
<path fill-rule="evenodd" clip-rule="evenodd" d="M28.4136 46.0748C21.7622 46.0748 11.9497 45.1408 11.9497 41.6325C11.9497 38.1242 16.5596 30.5808 28.4136 30.5808C40.2675 30.5808 44.8774 38.1242 44.8774 41.6325C44.8774 45.1408 35.065 46.0748 28.4136 46.0748ZM28.4136 10.8242C30.5968 10.8242 32.6906 11.6915 34.2344 13.2353C35.7782 14.7791 36.6455 16.8729 36.6455 19.0561C36.6455 21.2394 35.7782 23.3332 34.2344 24.877C32.6906 26.4208 30.5968 27.2881 28.4136 27.2881C26.2303 27.2881 24.1365 26.4208 22.5927 24.877C21.049 23.3332 20.1817 21.2394 20.1817 19.0561C20.1817 16.8729 21.049 14.7791 22.5927 13.2353C24.1365 11.6915 26.2303 10.8242 28.4136 10.8242ZM50.8882 0H5.98685C4.39904 0 2.87626 0.630755 1.75351 1.75351C0.630755 2.87626 0 4.39904 0 5.98685V50.8882C0 52.476 0.630755 53.9988 1.75351 55.1215C2.87626 56.2443 4.39904 56.8751 5.98685 56.8751H50.8882C52.476 56.8751 53.9988 56.2443 55.1215 55.1215C56.2443 53.9988 56.8751 52.476 56.8751 50.8882V5.98685C56.8751 4.39904 56.2443 2.87626 55.1215 1.75351C53.9988 0.630755 52.476 0 50.8882 0Z" fill="#AACEFA"/>
</svg>
